<?xml version="1.0" encoding="windows-1252" standalone="no"?>
<svg xmlns="http://www.w3.org/2000/svg" xmlns:xlink="http://www.w3.org/1999/xlink" contentStyleType="text/css" height="951px" preserveAspectRatio="none" style="width:700px;height:951px;background:#FFFFFF;" version="1.1" viewBox="0 0 700 951" width="700px" zoomAndPan="magnify"><defs/><g><ellipse cx="372.5" cy="20" fill="#222222" rx="10" ry="10" style="stroke:#222222;stroke-width:1.0;"/><rect fill="none" height="860.1406" style="stroke:#000000;stroke-width:1.5;" width="678" x="11" y="40"/><path d="M155,40 L155,49.2969 L145,59.2969 L11,59.2969 " fill="none" style="stroke:#000000;stroke-width:1.5;"/><text fill="#000000" font-family="sans-serif" font-size="14" lengthAdjust="spacing" textLength="134" x="14" y="53.9951">modify_list_in_place</text><rect fill="#F1F1F1" height="33.9688" style="stroke:#181818;stroke-width:0.5;" width="115" x="315" y="76.2969"/><line style="stroke:#181818;stroke-width:0.5;" x1="320" x2="320" y1="76.2969" y2="110.2656"/><line style="stroke:#181818;stroke-width:0.5;" x1="425" x2="425" y1="76.2969" y2="110.2656"/><text fill="#000000" font-family="sans-serif" font-size="12" lengthAdjust="spacing" textLength="95" x="325" y="97.4355">write_index = 0</text><path d="M21,164.2656 L21,219.6641 A0,0 0 0 0 21,219.6641 L290,219.6641 A0,0 0 0 0 290,219.6641 L290,195.9648 L310,191.9648 L290,187.9648 L290,174.2656 L280,164.2656 L21,164.2656 A0,0 0 0 0 21,164.2656 " fill="#FEFFDD" style="stroke:#181818;stroke-width:0.5;"/><path d="M280,164.2656 L280,174.2656 L290,174.2656 L280,164.2656 " fill="#FEFFDD" style="stroke:#181818;stroke-width:0.5;"/><text fill="#000000" font-family="sans-serif" font-size="13" lengthAdjust="spacing" textLength="244" x="27" y="181.3325">Almacenamos el nuevo número como</text><text fill="#000000" font-family="sans-serif" font-size="13" lengthAdjust="spacing" textLength="211" x="27" y="196.4653">cadena para preservar ceros a la</text><text fill="#000000" font-family="sans-serif" font-size="13" lengthAdjust="spacing" textLength="58" x="27" y="211.5981">izquierda</text><rect fill="#F1F1F1" height="33.9688" style="stroke:#181818;stroke-width:0.5;" width="125" x="310" y="174.9805"/><line style="stroke:#181818;stroke-width:0.5;" x1="315" x2="315" y1="174.9805" y2="208.9492"/><line style="stroke:#181818;stroke-width:0.5;" x1="430" x2="430" y1="174.9805" y2="208.9492"/><text fill="#000000" font-family="sans-serif" font-size="12" lengthAdjust="spacing" textLength="105" x="320" y="196.1191">new_num_str = ''</text><rect fill="#F1F1F1" height="33.9688" style="stroke:#181818;stroke-width:0.5;" width="141" x="302" y="283.6641"/><line style="stroke:#181818;stroke-width:0.5;" x1="307" x2="307" y1="283.6641" y2="317.6328"/><line style="stroke:#181818;stroke-width:0.5;" x1="438" x2="438" y1="283.6641" y2="317.6328"/><text fill="#000000" font-family="sans-serif" font-size="12" lengthAdjust="spacing" textLength="121" x="312" y="304.8027">digit = int(digit_str)</text><rect fill="#F1F1F1" height="33.9688" style="stroke:#181818;stroke-width:0.5;" width="183" x="281" y="386.0352"/><text fill="#000000" font-family="sans-serif" font-size="12" lengthAdjust="spacing" textLength="159" x="291" y="407.1738">new_num_str += digit_str</text><polygon fill="#F1F1F1" points="348.5,337.6328,396.5,337.6328,408.5,349.6328,396.5,361.6328,348.5,361.6328,336.5,349.6328,348.5,337.6328" style="stroke:#181818;stroke-width:0.5;"/><text fill="#000000" font-family="sans-serif" font-size="11" lengthAdjust="spacing" textLength="20" x="376.5" y="371.8433">yes</text><text fill="#000000" font-family="sans-serif" font-size="11" lengthAdjust="spacing" textLength="48" x="348.5" y="353.4409">digit &lt; s</text><polygon fill="#F1F1F1" points="372.5,440.0039,384.5,452.0039,372.5,464.0039,360.5,452.0039,372.5,440.0039" style="stroke:#181818;stroke-width:0.5;"/><polygon fill="#F1F1F1" points="372.5,239.6641,384.5,251.6641,372.5,263.6641,360.5,251.6641,372.5,239.6641" style="stroke:#181818;stroke-width:0.5;"/><polygon fill="#F1F1F1" points="316,494.0039,429,494.0039,441,506.0039,429,518.0039,316,518.0039,304,506.0039,316,494.0039" style="stroke:#181818;stroke-width:0.5;"/><text fill="#000000" font-family="sans-serif" font-size="11" lengthAdjust="spacing" textLength="113" x="316" y="509.812">digit_str in str(num)</text><path d="M144.5,528.0039 L144.5,583.4023 L322.5,583.4023 L322.5,538.0039 L312.5,528.0039 L144.5,528.0039 " fill="#FEFFDD" style="stroke:#181818;stroke-width:0.5;"/><path d="M312.5,528.0039 L312.5,538.0039 L322.5,538.0039 L312.5,528.0039 " fill="#FEFFDD" style="stroke:#181818;stroke-width:0.5;"/><text fill="#000000" font-family="sans-serif" font-size="13" lengthAdjust="spacing" textLength="130" x="150.5" y="545.0708">Si la cadena no está</text><text fill="#000000" font-family="sans-serif" font-size="13" lengthAdjust="spacing" textLength="116" x="150.5" y="560.2036">vacia convertimos</text><text fill="#000000" font-family="sans-serif" font-size="13" lengthAdjust="spacing" textLength="157" x="150.5" y="575.3364">a entero y lo agregamos</text><rect fill="#F1F1F1" height="33.9688" style="stroke:#181818;stroke-width:0.5;" width="257" x="244" y="631.8047"/><text fill="#000000" font-family="sans-serif" font-size="12" lengthAdjust="spacing" textLength="233" x="254" y="652.9434">data[write_index] = int(new_num_str)</text><rect fill="#F1F1F1" height="33.9688" style="stroke:#181818;stroke-width:0.5;" width="129" x="308" y="700.7734"/><text fill="#000000" font-family="sans-serif" font-size="12" lengthAdjust="spacing" textLength="105" x="318" y="721.9121">write_index += 1</text><polygon fill="#F1F1F1" points="334.5,583.4023,410.5,583.4023,422.5,595.4023,410.5,607.4023,334.5,607.4023,322.5,595.4023,334.5,583.4023" style="stroke:#181818;stroke-width:0.5;"/><text fill="#000000" font-family="sans-serif" font-size="11" lengthAdjust="spacing" textLength="20" x="376.5" y="617.6128">yes</text><text fill="#000000" font-family="sans-serif" font-size="11" lengthAdjust="spacing" textLength="76" x="334.5" y="599.2104">new_num_str</text><polygon fill="#F1F1F1" points="372.5,754.7422,384.5,766.7422,372.5,778.7422,360.5,766.7422,372.5,754.7422" style="stroke:#181818;stroke-width:0.5;"/><polygon fill="#F1F1F1" points="372.5,130.2656,384.5,142.2656,372.5,154.2656,360.5,142.2656,372.5,130.2656" style="stroke:#181818;stroke-width:0.5;"/><polygon fill="#F1F1F1" points="338.5,798.7422,406.5,798.7422,418.5,810.7422,406.5,822.7422,338.5,822.7422,326.5,810.7422,338.5,798.7422" style="stroke:#181818;stroke-width:0.5;"/><text fill="#000000" font-family="sans-serif" font-size="11" lengthAdjust="spacing" textLength="68" x="338.5" y="814.5503">num in data</text><path d="M474,832.7422 L474,856.4414 L454,860.4414 L474,864.4414 L474,888.1406 A0,0 0 0 0 474,888.1406 L679,888.1406 A0,0 0 0 0 679,888.1406 L679,842.7422 L669,832.7422 L474,832.7422 A0,0 0 0 0 474,832.7422 " fill="#FEFFDD" style="stroke:#181818;stroke-width:0.5;"/><path d="M669,832.7422 L669,842.7422 L679,842.7422 L669,832.7422 " fill="#FEFFDD" style="stroke:#181818;stroke-width:0.5;"/><text fill="#000000" font-family="sans-serif" font-size="13" lengthAdjust="spacing" textLength="180" x="480" y="849.8091">Elimina todos los elementos</text><text fill="#000000" font-family="sans-serif" font-size="13" lengthAdjust="spacing" textLength="94" x="480" y="864.9419">en la lista data</text><text fill="#000000" font-family="sans-serif" font-size="13" lengthAdjust="spacing" textLength="114" x="480" y="880.0747">desde write_index</text><rect fill="#F1F1F1" height="33.9688" style="stroke:#181818;stroke-width:0.5;" width="163" x="291" y="843.457"/><text fill="#000000" font-family="sans-serif" font-size="12" lengthAdjust="spacing" textLength="135" x="305" y="864.5957">del data[write_index:]</text><ellipse cx="372.5" cy="930.1406" fill="none" rx="10" ry="10" style="stroke:#222222;stroke-width:1.5;"/><line style="stroke:#222222;stroke-width:2.5;" x1="366.3128" x2="378.6872" y1="923.9534" y2="936.3278"/><line style="stroke:#222222;stroke-width:2.5;" x1="378.6872" x2="366.3128" y1="923.9534" y2="936.3278"/><line style="stroke:#181818;stroke-width:1.0;" x1="372.5" x2="372.5" y1="361.6328" y2="386.0352"/><polygon fill="#181818" points="368.5,376.0352,372.5,386.0352,376.5,376.0352,372.5,380.0352" style="stroke:#181818;stroke-width:1.0;"/><line style="stroke:#181818;stroke-width:1.0;" x1="408.5" x2="474" y1="349.6328" y2="349.6328"/><polygon fill="#181818" points="470,393.0195,474,403.0195,478,393.0195,474,397.0195" style="stroke:#181818;stroke-width:1.0;"/><line style="stroke:#181818;stroke-width:1.0;" x1="474" x2="474" y1="349.6328" y2="452.0039"/><line style="stroke:#181818;stroke-width:1.0;" x1="474" x2="384.5" y1="452.0039" y2="452.0039"/><polygon fill="#181818" points="394.5,448.0039,384.5,452.0039,394.5,456.0039,390.5,452.0039" style="stroke:#181818;stroke-width:1.0;"/><line style="stroke:#181818;stroke-width:1.0;" x1="372.5" x2="372.5" y1="420.0039" y2="440.0039"/><polygon fill="#181818" points="368.5,430.0039,372.5,440.0039,376.5,430.0039,372.5,434.0039" style="stroke:#181818;stroke-width:1.0;"/><line style="stroke:#181818;stroke-width:1.0;" x1="372.5" x2="372.5" y1="317.6328" y2="337.6328"/><polygon fill="#181818" points="368.5,327.6328,372.5,337.6328,376.5,327.6328,372.5,331.6328" style="stroke:#181818;stroke-width:1.0;"/><line style="stroke:#181818;stroke-width:1.0;" x1="372.5" x2="372.5" y1="263.6641" y2="283.6641"/><polygon fill="#181818" points="368.5,273.6641,372.5,283.6641,376.5,273.6641,372.5,277.6641" style="stroke:#181818;stroke-width:1.0;"/><line style="stroke:#181818;stroke-width:1.0;" x1="441" x2="498" y1="506.0039" y2="506.0039"/><polygon fill="#181818" points="494,378.5352,498,368.5352,502,378.5352,498,374.5352" style="stroke:#181818;stroke-width:1.0;"/><line style="stroke:#181818;stroke-width:1.0;" x1="498" x2="498" y1="251.6641" y2="506.0039"/><line style="stroke:#181818;stroke-width:1.0;" x1="498" x2="384.5" y1="251.6641" y2="251.6641"/><polygon fill="#181818" points="394.5,247.6641,384.5,251.6641,394.5,255.6641,390.5,251.6641" style="stroke:#181818;stroke-width:1.0;"/><line style="stroke:#181818;stroke-width:1.0;" x1="372.5" x2="372.5" y1="464.0039" y2="494.0039"/><polygon fill="#181818" points="368.5,484.0039,372.5,494.0039,376.5,484.0039,372.5,488.0039" style="stroke:#181818;stroke-width:1.0;"/><line style="stroke:#181818;stroke-width:1.0;" x1="372.5" x2="372.5" y1="208.9492" y2="239.6641"/><polygon fill="#181818" points="368.5,229.6641,372.5,239.6641,376.5,229.6641,372.5,233.6641" style="stroke:#181818;stroke-width:1.0;"/><line style="stroke:#181818;stroke-width:1.0;" x1="372.5" x2="372.5" y1="665.7734" y2="700.7734"/><polygon fill="#181818" points="368.5,690.7734,372.5,700.7734,376.5,690.7734,372.5,694.7734" style="stroke:#181818;stroke-width:1.0;"/><line style="stroke:#181818;stroke-width:1.0;" x1="372.5" x2="372.5" y1="607.4023" y2="631.8047"/><polygon fill="#181818" points="368.5,621.8047,372.5,631.8047,376.5,621.8047,372.5,625.8047" style="stroke:#181818;stroke-width:1.0;"/><line style="stroke:#181818;stroke-width:1.0;" x1="422.5" x2="511" y1="595.4023" y2="595.4023"/><polygon fill="#181818" points="507,673.2734,511,683.2734,515,673.2734,511,677.2734" style="stroke:#181818;stroke-width:1.0;"/><line style="stroke:#181818;stroke-width:1.0;" x1="511" x2="511" y1="595.4023" y2="766.7422"/><line style="stroke:#181818;stroke-width:1.0;" x1="511" x2="384.5" y1="766.7422" y2="766.7422"/><polygon fill="#181818" points="394.5,762.7422,384.5,766.7422,394.5,770.7422,390.5,766.7422" style="stroke:#181818;stroke-width:1.0;"/><line style="stroke:#181818;stroke-width:1.0;" x1="372.5" x2="372.5" y1="734.7422" y2="754.7422"/><polygon fill="#181818" points="368.5,744.7422,372.5,754.7422,376.5,744.7422,372.5,748.7422" style="stroke:#181818;stroke-width:1.0;"/><line style="stroke:#181818;stroke-width:1.0;" x1="372.5" x2="372.5" y1="518.0039" y2="583.4023"/><polygon fill="#181818" points="368.5,573.4023,372.5,583.4023,376.5,573.4023,372.5,577.4023" style="stroke:#181818;stroke-width:1.0;"/><line style="stroke:#181818;stroke-width:1.0;" x1="372.5" x2="372.5" y1="154.2656" y2="174.9805"/><polygon fill="#181818" points="368.5,164.9805,372.5,174.9805,376.5,164.9805,372.5,168.9805" style="stroke:#181818;stroke-width:1.0;"/><line style="stroke:#181818;stroke-width:1.0;" x1="418.5" x2="522" y1="810.7422" y2="810.7422"/><polygon fill="#181818" points="518,474.0039,522,464.0039,526,474.0039,522,470.0039" style="stroke:#181818;stroke-width:1.0;"/><line style="stroke:#181818;stroke-width:1.0;" x1="522" x2="522" y1="142.2656" y2="810.7422"/><line style="stroke:#181818;stroke-width:1.0;" x1="522" x2="384.5" y1="142.2656" y2="142.2656"/><polygon fill="#181818" points="394.5,138.2656,384.5,142.2656,394.5,146.2656,390.5,142.2656" style="stroke:#181818;stroke-width:1.0;"/><line style="stroke:#181818;stroke-width:1.0;" x1="372.5" x2="372.5" y1="778.7422" y2="798.7422"/><polygon fill="#181818" points="368.5,788.7422,372.5,798.7422,376.5,788.7422,372.5,792.7422" style="stroke:#181818;stroke-width:1.0;"/><line style="stroke:#181818;stroke-width:1.0;" x1="372.5" x2="372.5" y1="110.2656" y2="130.2656"/><polygon fill="#181818" points="368.5,120.2656,372.5,130.2656,376.5,120.2656,372.5,124.2656" style="stroke:#181818;stroke-width:1.0;"/><line style="stroke:#181818;stroke-width:1.0;" x1="372.5" x2="372.5" y1="822.7422" y2="843.457"/><polygon fill="#181818" points="368.5,833.457,372.5,843.457,376.5,833.457,372.5,837.457" style="stroke:#181818;stroke-width:1.0;"/><line style="stroke:#181818;stroke-width:1.0;" x1="372.5" x2="372.5" y1="30" y2="76.2969"/><polygon fill="#181818" points="368.5,66.2969,372.5,76.2969,376.5,66.2969,372.5,70.2969" style="stroke:#181818;stroke-width:1.0;"/><line style="stroke:#181818;stroke-width:1.0;" x1="372.5" x2="372.5" y1="877.4258" y2="920.1406"/><polygon fill="#181818" points="368.5,910.1406,372.5,920.1406,376.5,910.1406,372.5,914.1406" style="stroke:#181818;stroke-width:1.0;"/><!--SRC=[RL8zJiCm5DvpYc-Z4Gki5HqOE04ZgY8hVacVvDZ5TbCAvJ1SWxKNuzbDqhHYIV9-yltP8IeV2s0hBuxiB3gdkJbKXaEis5PResh2bwmizvuZIK_J1rPuE1RIzBGbbG1aRcbVsLrNXUXbVdTtp6th8i5G4v5BuDbq0cbLvmB8mEweTx2dtuwyG-qwDoxMIijQaYOFJu5yhpngMGjGC6hSuy_t7PFNAjTaTURCnKoU2DJSSXHfRECYVoUfvN64QN3kuWcXHDoGnU90eHpcDmxlLvWmi1vsX9oR6VD-muPm8HDgo6iX86LP52Fj3FSVuYd1ISWh9_j3FjQ1GZpzO1htgcOPEzkJd6hAUHefaHXJq0SO1zLwQjD1NEHViak1gQZUPiU-7iAxqZjwlxeVaixZC1apkKf4_avP98ASmn9Qxi8jttATCN80djlDEO4NmnsByUYqM3Fv6b4dlaQZaf_4aswmof2vgIbemWoykFBxNKZn1m00]--></g></svg>