<?xml version="1.0" encoding="windows-1252" standalone="no"?>
<svg xmlns="http://www.w3.org/2000/svg" xmlns:xlink="http://www.w3.org/1999/xlink" contentStyleType="text/css" height="491px" preserveAspectRatio="none" style="width:739px;height:491px;background:#FFFFFF;" version="1.1" viewBox="0 0 739 491" width="739px" zoomAndPan="magnify"><defs/><g><ellipse cx="430" cy="20" fill="#222222" rx="10" ry="10" style="stroke:#222222;stroke-width:1.0;"/><rect fill="none" height="400.7188" style="stroke:#000000;stroke-width:1.5;" width="717" x="11" y="40"/><path d="M113,40 L113,49.2969 L103,59.2969 L11,59.2969 " fill="none" style="stroke:#000000;stroke-width:1.5;"/><text fill="#000000" font-family="sans-serif" font-size="14" lengthAdjust="spacing" textLength="92" x="14" y="53.9951">reverse_array</text><rect fill="#F1F1F1" height="33.9688" style="stroke:#181818;stroke-width:0.5;" width="66" x="397" y="76.2969"/><line style="stroke:#181818;stroke-width:0.5;" x1="402" x2="402" y1="76.2969" y2="110.2656"/><line style="stroke:#181818;stroke-width:0.5;" x1="458" x2="458" y1="76.2969" y2="110.2656"/><text fill="#000000" font-family="sans-serif" font-size="12" lengthAdjust="spacing" textLength="46" x="407" y="97.4355">left = 0</text><path d="M526,127.1172 L526,143.25 L506,147.25 L526,151.25 L526,167.3828 A0,0 0 0 0 526,167.3828 L718,167.3828 A0,0 0 0 0 718,167.3828 L718,137.1172 L708,127.1172 L526,127.1172 A0,0 0 0 0 526,127.1172 " fill="#FEFFDD" style="stroke:#181818;stroke-width:0.5;"/><path d="M708,127.1172 L708,137.1172 L718,137.1172 L708,127.1172 " fill="#FEFFDD" style="stroke:#181818;stroke-width:0.5;"/><text fill="#000000" font-family="sans-serif" font-size="13" lengthAdjust="spacing" textLength="167" x="532" y="144.1841">Definimos las variables de</text><text fill="#000000" font-family="sans-serif" font-size="13" lengthAdjust="spacing" textLength="170" x="532" y="159.3169">posición dentro del arreglo</text><rect fill="#F1F1F1" height="33.9688" style="stroke:#181818;stroke-width:0.5;" width="152" x="354" y="130.2656"/><line style="stroke:#181818;stroke-width:0.5;" x1="359" x2="359" y1="130.2656" y2="164.2344"/><line style="stroke:#181818;stroke-width:0.5;" x1="501" x2="501" y1="130.2656" y2="164.2344"/><text fill="#000000" font-family="sans-serif" font-size="12" lengthAdjust="spacing" textLength="128" x="364" y="151.4043">right = len(array) - 1</text><path d="M21,221.3828 L21,276.7813 A0,0 0 0 0 21,276.7813 L250,276.7813 A0,0 0 0 0 250,276.7813 L250,253.082 L270,249.082 L250,245.082 L250,231.3828 L240,221.3828 L21,221.3828 A0,0 0 0 0 21,221.3828 " fill="#FEFFDD" style="stroke:#181818;stroke-width:0.5;"/><path d="M240,221.3828 L240,231.3828 L250,231.3828 L240,221.3828 " fill="#FEFFDD" style="stroke:#181818;stroke-width:0.5;"/><text fill="#000000" font-family="sans-serif" font-size="13" lengthAdjust="spacing" textLength="208" x="27" y="238.4497">Reasignamos el valor del arreglo</text><text fill="#000000" font-family="sans-serif" font-size="13" lengthAdjust="spacing" textLength="177" x="27" y="253.5825">en las posiciones left y right</text><text fill="#000000" font-family="sans-serif" font-size="13" lengthAdjust="spacing" textLength="194" x="27" y="268.7153">invirtiendo el orden del arreglo</text><rect fill="#F1F1F1" height="33.9688" style="stroke:#181818;stroke-width:0.5;" width="320" x="270" y="232.0977"/><line style="stroke:#181818;stroke-width:0.5;" x1="275" x2="275" y1="232.0977" y2="266.0664"/><line style="stroke:#181818;stroke-width:0.5;" x1="585" x2="585" y1="232.0977" y2="266.0664"/><text fill="#000000" font-family="sans-serif" font-size="12" lengthAdjust="spacing" textLength="300" x="280" y="253.2363">array[left], array[right] = array[right], array[left]</text><rect fill="#F1F1F1" height="33.9688" style="stroke:#181818;stroke-width:0.5;" width="76" x="392" y="296.7813"/><line style="stroke:#181818;stroke-width:0.5;" x1="397" x2="397" y1="296.7813" y2="330.75"/><line style="stroke:#181818;stroke-width:0.5;" x1="463" x2="463" y1="296.7813" y2="330.75"/><text fill="#000000" font-family="sans-serif" font-size="12" lengthAdjust="spacing" textLength="56" x="402" y="317.9199">left += 1</text><rect fill="#F1F1F1" height="33.9688" style="stroke:#181818;stroke-width:0.5;" width="83" x="388.5" y="350.75"/><line style="stroke:#181818;stroke-width:0.5;" x1="393.5" x2="393.5" y1="350.75" y2="384.7188"/><line style="stroke:#181818;stroke-width:0.5;" x1="466.5" x2="466.5" y1="350.75" y2="384.7188"/><text fill="#000000" font-family="sans-serif" font-size="12" lengthAdjust="spacing" textLength="59" x="398.5" y="371.8887">right -= 1</text><polygon fill="#F1F1F1" points="430,187.3828,442,199.3828,430,211.3828,418,199.3828,430,187.3828" style="stroke:#181818;stroke-width:0.5;"/><polygon fill="#F1F1F1" points="399.5,404.7188,460.5,404.7188,472.5,416.7188,460.5,428.7188,399.5,428.7188,387.5,416.7188,399.5,404.7188" style="stroke:#181818;stroke-width:0.5;"/><text fill="#000000" font-family="sans-serif" font-size="11" lengthAdjust="spacing" textLength="61" x="399.5" y="420.5269">left &lt; right</text><ellipse cx="430" cy="470.7188" fill="none" rx="10" ry="10" style="stroke:#222222;stroke-width:1.5;"/><line style="stroke:#222222;stroke-width:2.5;" x1="423.8128" x2="436.1872" y1="464.5316" y2="476.9059"/><line style="stroke:#222222;stroke-width:2.5;" x1="436.1872" x2="423.8128" y1="464.5316" y2="476.9059"/><line style="stroke:#181818;stroke-width:1.0;" x1="430" x2="430" y1="110.2656" y2="130.2656"/><polygon fill="#181818" points="426,120.2656,430,130.2656,434,120.2656,430,124.2656" style="stroke:#181818;stroke-width:1.0;"/><line style="stroke:#181818;stroke-width:1.0;" x1="430" x2="430" y1="266.0664" y2="296.7813"/><polygon fill="#181818" points="426,286.7813,430,296.7813,434,286.7813,430,290.7813" style="stroke:#181818;stroke-width:1.0;"/><line style="stroke:#181818;stroke-width:1.0;" x1="430" x2="430" y1="330.75" y2="350.75"/><polygon fill="#181818" points="426,340.75,430,350.75,434,340.75,430,344.75" style="stroke:#181818;stroke-width:1.0;"/><line style="stroke:#181818;stroke-width:1.0;" x1="430" x2="430" y1="211.3828" y2="232.0977"/><polygon fill="#181818" points="426,222.0977,430,232.0977,434,222.0977,430,226.0977" style="stroke:#181818;stroke-width:1.0;"/><line style="stroke:#181818;stroke-width:1.0;" x1="472.5" x2="602" y1="416.7188" y2="416.7188"/><polygon fill="#181818" points="598,313.0508,602,303.0508,606,313.0508,602,309.0508" style="stroke:#181818;stroke-width:1.0;"/><line style="stroke:#181818;stroke-width:1.0;" x1="602" x2="602" y1="199.3828" y2="416.7188"/><line style="stroke:#181818;stroke-width:1.0;" x1="602" x2="442" y1="199.3828" y2="199.3828"/><polygon fill="#181818" points="452,195.3828,442,199.3828,452,203.3828,448,199.3828" style="stroke:#181818;stroke-width:1.0;"/><line style="stroke:#181818;stroke-width:1.0;" x1="430" x2="430" y1="384.7188" y2="404.7188"/><polygon fill="#181818" points="426,394.7188,430,404.7188,434,394.7188,430,398.7188" style="stroke:#181818;stroke-width:1.0;"/><line style="stroke:#181818;stroke-width:1.0;" x1="430" x2="430" y1="164.2344" y2="187.3828"/><polygon fill="#181818" points="426,177.3828,430,187.3828,434,177.3828,430,181.3828" style="stroke:#181818;stroke-width:1.0;"/><line style="stroke:#181818;stroke-width:1.0;" x1="430" x2="430" y1="30" y2="76.2969"/><polygon fill="#181818" points="426,66.2969,430,76.2969,434,66.2969,430,70.2969" style="stroke:#181818;stroke-width:1.0;"/><line style="stroke:#181818;stroke-width:1.0;" x1="430" x2="430" y1="428.7188" y2="460.7188"/><polygon fill="#181818" points="426,450.7188,430,460.7188,434,450.7188,430,454.7188" style="stroke:#181818;stroke-width:1.0;"/><!--SRC=[RP11JWCn34NtSug_R0MLwBPYTfo0BQggbBfJIo4UET6WgkLK786BuN5cAX2ieX___BplN8AM1kZjuCAIe3IGPje5rN36nMR09jAneCN3jKhbxZJgI6dXlYLMMADEanI2Erm2JtJan6-I4KF649J3FbB6WJ0vUidyob-VoUvIKR4ZmeAfY-8MIWVFRLmfzHJcz8q3l8o4stjKuRzl3V2dd8Vkl4wl7TRRJHV0CuNCNGeZi64C8Oh-0QfGNgZ2Ix967dJ-LHxWDB0jroh8c2Tg7V_9krMSQddMNOlrZ3fjVTNUDbtty7xYI5Yu_x7-lRJnHsE9tm00]--></g></svg>